<svg width="100.000000" height="100.000000" viewBox="0 0 100 100" fill="none" xmlns="http://www.w3.org/2000/svg" xmlns:xlink="http://www.w3.org/1999/xlink">
	<desc>
			Created with Pixso.
	</desc>
	<defs>
		<clipPath id="clip2_24">
			<rect id="logo" width="88.000000" height="100.000000" transform="translate(6.000000 0.000000)" fill="white" fill-opacity="0"/>
		</clipPath>
		<clipPath id="clip2_1">
			<rect id="Size1" width="100.000000" height="100.000000" fill="white" fill-opacity="0"/>
		</clipPath>
	</defs>
	<rect width="100.000000" height="100.000000" fill="#1A1A1A"/>
	<rect id="Size1" width="100.000000" height="100.000000" fill="#FFFFFF" fill-opacity="1.000000"/>
	<g clip-path="url(#clip2_1)">
		<g clip-path="url(#clip2_24)">
			<path id="Shape" d="M50 3.12L9.14 26.04L9.14 72.91L50 96.87L90.85 73.95L90.85 27.08L50 3.12Z" fill="#000000" fill-opacity="1.000000" fill-rule="nonzero"/>
			<path id="Shape" d="M9.14 26.04L9.14 72.91L50 96.87L90.85 73.95L90.85 27.08L50 3.12L9.14 26.04Z" stroke="#7B53F5" stroke-opacity="1.000000" stroke-width="5.000000" stroke-linejoin="round"/>
			<path id="E" d="M60.92 67L38.83 67L38.83 32.08L60.72 32.08L60.72 36.62L44.1 36.62L44.1 47.26L59.57 47.26L59.57 51.77L44.1 51.77L44.1 62.46L60.92 62.46L60.92 67Z" fill="#7B53F5" fill-opacity="1.000000" fill-rule="evenodd"/>
		</g>
	</g>
</svg>
